<?xml version="1.0" standalone="no"?>
<!DOCTYPE svg PUBLIC "-//W3C//DTD SVG 20010904//EN"
 "http://www.w3.org/TR/2001/REC-SVG-20010904/DTD/svg10.dtd">
<svg version="1.0" xmlns="http://www.w3.org/2000/svg"
 width="832.000000pt" height="832.000000pt" viewBox="0 0 832.000000 832.000000"
 preserveAspectRatio="xMidYMid meet">
<metadata>
Created by potrace 1.14, written by Peter Selinger 2001-2017
</metadata>
<g transform="translate(0.000000,832.000000) scale(0.100000,-0.100000)"
fill="#000000" stroke="none">
<path d="M245 7671 c-69 -17 -185 -96 -185 -127 0 -7 -4 -14 -10 -16 -5 -1
-19 -30 -30 -62 -16 -44 -20 -75 -17 -120 3 -34 6 -61 7 -61 1 0 3 -7 5 -16
12 -62 72 -139 144 -183 52 -33 67 -37 149 -41 35 -2 66 -5 68 -7 2 -3 26 -2
54 2 28 4 52 4 55 2 4 -4 198 -5 223 -1 4 1 12 1 17 -1 10 -1 209 -1 223 1 4
1 12 1 17 -1 22 -4 218 0 225 5 5 3 11 2 14 -3 2 -4 32 -5 65 -2 34 3 61 3 61
0 0 -3 51 -4 112 -2 62 2 131 2 153 1 22 -1 47 -1 55 0 8 1 38 0 65 0 28 -1
57 -1 65 0 8 1 33 1 55 0 22 -1 47 -1 55 0 8 1 38 0 65 0 28 -1 57 -1 65 0 8
1 33 1 55 0 22 -1 47 -1 55 0 8 1 38 0 65 0 28 -1 57 -1 65 0 8 1 33 1 55 0
22 -1 46 -1 53 0 21 2 44 2 160 1 63 0 118 2 123 5 5 4 9 3 9 -2 0 -4 33 -7
72 -6 195 7 248 8 248 3 0 -3 33 -4 72 -3 195 7 248 8 248 3 0 -3 33 -4 72 -3
195 7 248 8 248 3 0 -3 33 -4 72 -3 127 5 280 5 284 1 2 -3 27 -2 54 2 28 4
53 4 55 0 2 -3 30 -3 63 0 32 3 70 3 83 0 13 -4 38 -3 54 0 17 3 41 4 55 0 14
-3 43 -3 65 0 22 3 51 3 65 0 14 -4 39 -3 55 0 17 3 41 4 55 0 14 -3 43 -3 65
0 22 3 51 3 65 0 14 -4 39 -3 55 0 17 3 41 4 55 0 14 -3 43 -3 65 0 22 3 51 3
65 0 14 -4 39 -3 55 0 17 3 41 4 55 0 14 -3 43 -3 65 0 22 3 51 3 65 0 14 -4
39 -3 55 0 17 3 41 4 55 0 14 -3 43 -3 65 0 22 3 51 3 65 0 14 -4 39 -3 55 0
17 3 41 4 55 0 14 -3 43 -3 65 0 22 3 51 3 65 0 14 -4 39 -3 55 0 17 3 41 4
55 0 14 -3 43 -3 65 0 22 3 51 3 65 0 14 -4 39 -3 55 0 17 3 41 4 55 0 14 -3
43 -3 65 0 22 3 51 3 65 0 14 -4 39 -3 55 0 17 3 40 4 53 1 12 -3 72 -4 132
-1 61 3 110 3 110 0 0 -3 33 -4 72 -3 195 7 248 8 248 3 0 -3 33 -4 72 -3 195
7 248 8 248 3 0 -3 33 -4 72 -3 195 7 248 8 248 3 0 -3 33 -4 72 -2 108 4 250
2 260 -4 4 -3 8 -2 8 3 0 6 110 9 130 3 9 -3 84 1 125 6 103 13 210 105 246
211 52 156 -17 319 -166 393 l-50 25 -3905 2 c-2148 0 -3918 -2 -3935 -6z"/>
<path d="M1130 6400 c-7 -4 -20 -5 -31 -3 -10 3 -46 -5 -81 -16 -74 -25 -144
-84 -179 -151 -30 -58 -33 -70 -32 -160 0 -57 5 -86 23 -124 47 -99 146 -170
252 -182 29 -3 58 -7 65 -9 7 -2 15 0 18 5 3 5 18 5 34 0 15 -4 34 -4 41 0 6
4 27 4 46 0 19 -4 36 -4 39 0 3 5 18 5 34 0 15 -4 34 -4 41 0 6 4 27 4 46 0
19 -4 36 -4 39 0 3 5 18 5 34 0 15 -4 34 -4 41 0 6 4 27 4 46 0 19 -4 36 -4
39 0 3 5 18 5 34 0 15 -4 34 -4 41 0 6 4 27 4 46 0 19 -4 36 -4 39 0 3 5 18 5
34 0 15 -4 34 -4 41 0 6 4 27 4 46 0 19 -4 36 -4 39 0 3 5 18 5 34 0 15 -4 34
-4 41 0 6 4 27 4 46 0 19 -4 36 -4 39 0 3 5 18 5 34 0 15 -4 34 -4 41 0 6 4
27 4 46 0 19 -4 36 -4 39 0 3 5 18 5 34 0 15 -4 34 -4 41 0 6 4 27 4 46 0 19
-4 36 -4 39 0 3 5 18 5 34 0 16 -4 32 -6 35 -3 7 7 101 7 113 0 5 -3 15 -2 23
3 7 4 24 4 36 0 14 -6 26 -5 29 0 3 5 18 5 35 0 17 -5 30 -5 30 0 0 5 13 5 30
0 17 -5 30 -5 30 0 0 5 13 5 30 0 17 -5 30 -5 30 0 0 5 13 5 30 0 17 -5 30 -5
30 0 0 5 13 5 30 0 17 -5 30 -5 30 0 0 5 13 5 30 0 17 -5 30 -5 30 0 0 5 13 5
30 0 17 -5 30 -5 30 0 0 5 13 5 30 0 17 -5 30 -5 30 0 0 5 13 5 30 0 17 -5 30
-5 30 0 0 5 13 5 30 0 17 -5 30 -5 30 0 0 5 13 5 30 0 17 -5 30 -5 30 0 0 5
13 5 30 0 17 -5 30 -5 30 0 0 5 13 5 30 0 17 -5 30 -5 30 0 0 5 13 5 30 0 17
-5 30 -5 30 0 0 5 13 5 30 0 17 -5 30 -5 30 0 0 5 13 5 30 0 17 -5 30 -5 30 0
0 5 13 5 30 0 17 -5 30 -5 30 0 0 5 13 5 30 0 17 -5 30 -5 30 0 0 5 13 5 30 0
17 -5 30 -5 30 0 0 5 13 5 30 0 17 -5 30 -5 30 0 0 5 13 5 30 0 17 -5 30 -5
30 0 0 5 13 5 30 0 17 -5 30 -5 30 0 0 5 13 5 30 0 17 -5 30 -5 30 0 0 5 13 5
30 0 17 -5 30 -5 30 0 0 5 13 5 30 0 17 -5 30 -5 30 0 0 5 13 5 30 0 17 -5 30
-5 30 0 0 5 13 5 30 0 17 -5 30 -5 30 0 0 5 13 5 30 0 17 -5 30 -5 30 0 0 5
13 5 30 0 17 -5 30 -5 30 0 0 5 13 5 30 0 17 -5 30 -5 30 0 0 5 13 5 30 0 17
-5 30 -5 30 0 0 5 13 5 30 0 17 -5 30 -5 30 0 0 5 13 5 30 0 17 -5 30 -5 30 0
0 5 13 5 30 0 17 -5 30 -5 30 0 0 5 13 5 30 0 17 -5 30 -5 30 0 0 5 13 5 30 0
17 -5 30 -5 30 0 0 5 13 5 30 0 17 -5 30 -5 30 0 0 5 13 5 30 0 17 -5 30 -5
30 0 0 5 13 5 30 0 17 -5 30 -5 30 0 0 5 13 5 30 0 17 -5 30 -5 30 0 0 5 13 5
30 0 17 -5 30 -5 30 0 0 5 13 5 30 0 17 -5 30 -5 30 0 0 5 13 5 30 0 17 -5 30
-5 30 0 0 5 13 5 30 0 17 -5 30 -5 30 0 0 5 13 5 30 0 17 -5 30 -5 30 0 0 5
13 5 30 0 17 -5 30 -5 30 0 0 5 13 5 30 0 17 -5 30 -5 30 0 0 5 13 5 30 0 17
-5 30 -5 30 0 0 5 13 5 30 0 17 -5 30 -5 30 0 0 5 13 5 30 0 17 -5 30 -5 30 0
0 5 13 5 30 0 17 -5 30 -5 30 0 0 5 13 5 30 0 17 -5 30 -5 30 0 0 5 13 5 30 0
17 -5 30 -5 30 0 0 5 13 5 30 0 17 -5 30 -5 30 0 0 5 13 5 30 0 17 -5 30 -5
30 0 0 5 13 5 30 0 17 -5 30 -5 30 0 0 5 13 5 30 0 17 -5 30 -5 30 0 0 5 13 5
30 0 17 -5 30 -5 30 0 0 5 13 5 30 0 17 -5 30 -5 30 0 0 5 13 5 30 0 17 -5 30
-5 30 0 0 5 13 5 30 0 17 -5 30 -5 30 0 0 5 13 5 30 0 17 -5 30 -5 30 0 0 5
13 5 30 0 17 -5 30 -5 30 0 0 5 13 5 30 0 17 -5 30 -5 30 0 0 5 13 5 30 0 17
-5 30 -5 30 0 0 5 13 5 30 0 17 -5 30 -5 30 0 0 5 13 5 30 0 17 -5 30 -5 30 0
0 5 13 5 30 0 17 -5 30 -5 30 0 0 5 13 5 30 0 17 -5 30 -5 30 0 0 5 13 5 30 0
17 -5 30 -5 30 0 0 5 13 5 30 0 17 -5 30 -5 30 0 0 5 13 5 30 0 17 -5 30 -5
30 0 0 5 13 5 30 0 17 -5 30 -5 30 0 0 5 13 5 30 0 17 -5 30 -6 30 -2 0 4 21
6 47 5 48 -2 155 29 161 47 2 6 9 10 16 10 18 0 79 72 107 128 34 67 33 195
-1 267 -61 126 -177 189 -340 185 -19 -1 -41 -1 -47 -1 -7 0 -38 1 -68 1 -30
0 -61 -1 -67 -1 -7 0 -29 0 -48 0 -19 1 -43 1 -52 1 -71 -1 -138 0 -168 1 -19
1 -41 1 -47 0 -25 -2 -39 -2 -93 -1 -30 1 -59 1 -65 0 -9 -2 -32 -1 -90 4 -11
1 -32 -1 -46 -5 -15 -4 -32 -3 -39 1 -7 4 -25 4 -40 0 -15 -4 -33 -4 -40 0 -7
4 -25 4 -40 0 -15 -4 -33 -4 -40 0 -7 4 -25 4 -40 0 -15 -4 -33 -4 -40 0 -7 4
-25 4 -40 0 -15 -4 -33 -4 -40 0 -7 4 -25 4 -40 0 -15 -4 -33 -4 -40 0 -7 4
-25 4 -40 0 -15 -4 -33 -4 -40 0 -7 4 -24 5 -37 1 -14 -4 -50 -4 -79 -1 -30 3
-54 4 -54 0 0 -3 -31 -3 -70 0 -38 3 -70 2 -70 -1 0 -3 -18 -3 -39 1 -22 4
-45 4 -52 -1 -7 -4 -18 -5 -25 -2 -20 7 -124 9 -124 2 0 -4 -18 -3 -39 1 -22
4 -45 4 -52 -1 -7 -4 -18 -5 -25 -2 -20 7 -124 9 -124 2 0 -4 -18 -3 -39 1
-22 4 -45 4 -52 -1 -7 -4 -18 -5 -25 -2 -20 7 -124 9 -124 2 0 -4 -18 -3 -39
1 -22 4 -45 4 -52 -1 -7 -4 -17 -5 -22 -2 -4 3 -65 4 -135 4 -70 -1 -136 -1
-147 -1 -11 0 -31 0 -45 -1 -14 0 -32 0 -40 0 -8 1 -26 1 -40 0 -14 0 -32 0
-40 0 -8 1 -26 1 -40 0 -14 0 -32 0 -40 0 -8 1 -26 1 -40 0 -14 0 -32 0 -40 0
-8 1 -26 1 -40 0 -14 0 -32 0 -40 0 -8 1 -26 1 -40 0 -14 0 -32 0 -40 0 -16 1
-31 1 -128 -2 -34 -1 -62 0 -62 3 0 6 -109 2 -127 -4 -7 -3 -15 -1 -18 5 -4 5
-10 7 -15 4 -9 -6 -74 -7 -158 -3 -28 2 -52 0 -52 -3 0 -4 -15 -4 -33 0 -18 5
-41 5 -52 1 -11 -4 -25 -5 -31 -3 -19 7 -124 9 -124 2 0 -4 -18 -3 -39 1 -22
4 -45 4 -52 -1 -7 -4 -17 -5 -21 -3 -11 7 -116 9 -123 2 -3 -3 -23 -2 -45 2
-21 4 -44 4 -51 -1 -7 -4 -17 -5 -21 -3 -11 7 -116 9 -123 2 -3 -3 -23 -2 -45
2 -21 4 -44 4 -51 -1 -7 -4 -17 -5 -21 -3 -11 7 -116 9 -123 2 -3 -3 -23 -2
-45 2 -21 4 -44 4 -51 -1 -7 -4 -17 -5 -21 -3 -11 7 -116 9 -123 2 -3 -3 -23
-2 -45 2 -21 4 -44 4 -51 0 -6 -4 -24 -4 -39 0 -15 4 -33 4 -40 0 -7 -5 -23
-5 -34 0 -12 4 -30 4 -41 0 -11 -4 -25 -5 -31 -3 -19 7 -124 8 -124 2 0 -4
-15 -4 -33 0 -18 5 -41 5 -52 1 -11 -4 -25 -5 -31 -3 -19 7 -124 8 -124 2 0
-4 -15 -4 -33 0 -18 5 -41 5 -52 1 -11 -4 -32 -4 -47 1 -15 4 -30 4 -33 -1 -3
-4 -20 -4 -39 0 -19 4 -40 4 -46 0 -7 -4 -26 -4 -41 0 -16 5 -31 5 -34 0 -3
-5 -18 -5 -34 0 -15 4 -34 4 -41 0z"/>
<path d="M3209 5126 c-2 -3 -24 -7 -48 -10 -51 -6 -131 -35 -131 -47 0 -5 -6
-9 -13 -9 -20 0 -83 -76 -108 -129 -14 -30 -23 -70 -25 -114 -4 -100 22 -172
89 -240 53 -54 123 -87 194 -92 30 -3 58 -7 63 -10 5 -3 11 -1 15 4 3 6 15 7
29 1 12 -4 29 -4 36 0 8 5 18 6 23 3 13 -8 147 -9 147 -2 0 4 18 3 40 -1 22
-4 43 -4 46 1 2 4 15 4 28 -1 12 -4 29 -4 36 0 8 5 18 6 23 3 12 -7 147 -10
147 -3 0 3 21 4 47 2 27 -1 54 -3 61 -2 6 0 19 0 27 0 8 0 22 0 30 0 8 0 22 0
30 0 8 0 22 0 30 0 8 0 22 0 30 0 8 0 22 0 30 0 8 0 22 0 30 0 8 0 22 0 30 0
8 0 22 0 30 0 8 0 22 0 30 0 8 0 22 0 30 0 8 0 22 0 30 0 8 0 22 0 30 0 8 0
22 0 30 0 8 0 22 0 30 0 8 0 22 0 30 0 8 0 22 0 30 0 8 0 22 0 30 0 8 0 22 0
30 0 8 0 22 0 30 0 8 0 22 0 30 0 8 0 22 0 30 0 8 0 22 0 30 0 8 0 22 0 30 0
8 0 22 0 30 0 8 0 22 0 30 0 8 0 22 0 30 0 8 0 22 0 30 0 8 0 22 0 30 0 8 0
22 0 30 0 8 0 22 0 30 0 8 0 22 0 30 0 8 0 22 0 30 0 8 0 22 0 30 0 8 0 22 0
30 0 8 0 22 0 30 0 8 0 22 0 30 0 8 0 22 0 30 0 8 0 22 0 30 0 8 0 22 0 30 0
8 0 22 0 30 0 8 0 22 0 30 0 8 0 22 0 30 0 8 0 22 0 30 0 8 0 22 0 30 0 8 0
22 0 30 0 8 0 22 0 30 0 8 0 22 0 30 0 8 0 22 0 30 0 8 0 22 0 30 0 8 0 22 0
30 0 8 0 22 0 30 0 8 0 22 0 30 0 8 0 22 0 30 0 8 0 22 0 30 0 8 0 22 0 30 0
8 0 22 0 30 0 8 0 22 0 30 0 8 0 22 0 30 0 8 0 22 0 30 0 8 0 22 0 30 0 8 0
22 0 30 0 8 0 22 0 30 0 8 0 22 0 30 0 8 0 22 0 30 0 8 0 22 0 30 0 8 0 22 0
30 0 8 0 22 0 30 0 8 0 22 0 30 0 8 0 22 0 30 0 8 0 22 0 30 0 8 0 22 0 30 0
8 0 22 0 30 0 8 0 22 0 30 0 8 0 22 0 30 0 8 0 22 0 30 0 8 0 22 0 30 0 8 0
22 0 30 0 8 0 22 0 30 0 8 0 22 0 30 0 8 0 21 0 28 0 6 0 33 0 59 -1 27 -1 51
0 54 4 3 3 16 2 28 -3 13 -4 29 -4 36 0 8 5 18 6 23 3 13 -8 147 -9 147 -2 0
4 18 3 40 -1 22 -4 43 -4 46 1 2 4 15 4 28 -1 12 -4 29 -4 36 0 8 5 18 6 23 3
13 -8 147 -9 147 -2 0 4 18 3 40 -1 22 -4 43 -4 46 1 2 4 15 4 28 -1 12 -4 29
-4 36 0 8 5 18 6 23 3 13 -8 147 -9 147 -2 0 4 18 3 40 -1 22 -4 43 -4 46 1 2
4 15 4 28 -1 12 -4 29 -4 36 0 8 5 18 6 23 3 12 -7 147 -10 147 -2 0 3 19 4
42 2 106 -8 233 72 288 182 34 68 35 197 2 265 -33 69 -122 157 -165 164 -7 1
-18 5 -26 10 -7 5 -44 10 -83 12 -38 2 -73 6 -78 9 -5 3 -11 1 -15 -5 -4 -6
-12 -7 -24 -1 -10 6 -23 6 -31 1 -8 -5 -18 -6 -23 -3 -12 7 -422 7 -434 0 -5
-3 -15 -2 -23 3 -7 4 -24 4 -36 0 -14 -6 -26 -5 -29 0 -3 6 -15 6 -30 0 -15
-6 -27 -6 -30 0 -3 6 -15 6 -30 0 -15 -6 -27 -6 -30 0 -3 6 -15 6 -30 0 -15
-6 -27 -6 -30 0 -3 6 -15 6 -30 0 -15 -6 -27 -6 -30 0 -3 6 -15 6 -30 0 -15
-6 -27 -6 -30 0 -3 6 -15 6 -30 0 -15 -6 -27 -6 -30 0 -3 6 -15 6 -30 0 -15
-6 -27 -6 -30 0 -3 6 -15 6 -30 0 -15 -6 -27 -6 -30 0 -3 6 -15 6 -29 0 -13
-5 -27 -6 -30 -3 -3 3 -32 5 -63 4 -70 -2 -62 -2 -151 1 -39 2 -72 0 -72 -4 0
-4 -13 -3 -29 2 -15 4 -34 4 -41 0 -7 -4 -25 -4 -40 0 -15 4 -33 4 -41 0 -7
-5 -17 -6 -22 -3 -13 8 -147 9 -147 1 0 -4 -13 -3 -29 2 -16 4 -32 6 -35 3 -7
-8 -84 -8 -92 0 -3 3 -17 2 -30 -3 -14 -6 -24 -6 -24 0 0 5 -12 5 -28 1 -15
-5 -37 -5 -49 0 -13 5 -25 4 -28 -1 -3 -6 -15 -6 -30 0 -15 6 -27 6 -30 0 -3
-6 -15 -6 -30 0 -15 6 -27 6 -30 0 -3 -6 -15 -6 -30 0 -15 6 -27 6 -30 0 -3
-6 -15 -6 -30 0 -15 6 -27 6 -30 0 -3 -6 -15 -6 -30 0 -15 6 -27 6 -30 0 -3
-6 -15 -6 -30 0 -15 6 -27 6 -30 0 -3 -6 -15 -6 -30 0 -15 6 -27 6 -30 0 -3
-6 -15 -6 -30 0 -15 6 -27 6 -30 0 -3 -6 -15 -6 -30 0 -15 6 -27 6 -30 0 -3
-6 -15 -6 -30 0 -15 6 -27 6 -30 0 -3 -6 -15 -6 -30 0 -15 6 -27 6 -30 0 -3
-6 -15 -6 -30 0 -15 6 -27 6 -30 0 -3 -6 -15 -6 -30 0 -15 6 -27 6 -30 0 -3
-6 -15 -6 -30 0 -15 6 -27 6 -30 0 -3 -6 -15 -6 -30 0 -15 6 -27 6 -30 0 -3
-6 -15 -6 -30 0 -15 6 -27 6 -30 -1 -4 -5 -11 -7 -16 -3 -6 3 -38 5 -72 5 -83
-2 -82 -2 -165 1 -39 2 -72 0 -72 -4 0 -4 -13 -3 -29 2 -15 4 -34 4 -41 0 -7
-4 -25 -4 -40 0 -15 4 -33 4 -41 0 -7 -5 -17 -6 -22 -3 -13 8 -147 9 -147 1 0
-4 -13 -3 -29 2 -16 4 -32 6 -35 3 -9 -9 -58 -9 -83 -1 -12 4 -25 3 -28 -2 -4
-6 -13 -7 -24 -1 -10 6 -23 6 -31 1 -8 -5 -18 -6 -23 -3 -12 7 -436 7 -444 -1
-3 -3 -11 -1 -18 4 -7 5 -14 8 -16 6z"/>
<path d="M4200 3840 c0 -3 -21 -5 -48 -6 -63 -1 -90 -7 -133 -27 -44 -22 -119
-86 -119 -103 0 -7 -4 -14 -10 -16 -5 -1 -19 -28 -30 -60 -26 -73 -21 -175 11
-244 46 -97 153 -173 250 -177 27 -1 49 -4 49 -7 0 -3 241 -5 535 -5 294 0
535 2 535 5 0 7 69 4 76 -3 3 -3 17 -2 30 3 14 6 26 6 29 0 3 -6 15 -6 30 0
15 6 27 6 30 0 3 -6 15 -6 30 0 15 6 27 6 30 0 3 -6 15 -6 30 0 15 6 27 6 30
0 3 -6 15 -6 30 0 15 6 27 6 30 0 3 -6 15 -6 30 0 15 6 27 6 30 0 3 -6 15 -6
30 0 15 6 27 6 30 0 3 -6 15 -6 30 0 15 6 27 6 30 0 3 -6 15 -6 30 0 15 6 27
6 30 0 3 -6 15 -6 30 0 15 6 27 6 30 0 3 -6 15 -6 30 0 15 6 27 6 30 0 3 -6
15 -6 30 0 15 6 27 6 30 0 3 -6 15 -6 30 0 15 6 27 6 30 0 3 -6 15 -6 30 0 15
6 27 6 30 0 3 -6 15 -6 30 0 15 6 27 6 30 0 3 -6 15 -6 30 0 15 6 27 6 30 0 3
-6 15 -6 30 0 15 6 27 6 30 0 3 -6 15 -6 30 0 15 6 27 6 30 0 3 -6 15 -6 30 0
15 6 27 6 30 0 3 -6 15 -6 30 0 15 6 27 6 30 0 3 -6 15 -6 30 0 15 6 27 6 30
0 3 -6 15 -6 30 0 15 6 27 6 30 0 3 -6 15 -6 30 0 15 6 27 6 30 0 3 -6 15 -6
30 0 15 6 27 6 30 0 3 -6 15 -6 30 0 15 6 27 6 30 0 3 -6 15 -6 30 0 15 6 27
6 30 0 3 -6 15 -6 30 0 15 6 27 6 30 0 3 -6 15 -6 30 0 15 6 27 6 30 0 3 -5
11 -7 18 -5 7 2 37 6 67 10 116 12 223 98 260 209 64 193 -57 393 -255 421
-73 10 -115 11 -115 3 0 -3 -13 -3 -30 2 -17 5 -30 5 -30 0 0 -5 -13 -5 -30 0
-17 5 -30 5 -30 0 0 -5 -13 -5 -30 0 -17 5 -30 5 -30 0 0 -5 -13 -5 -30 0 -17
5 -30 5 -30 0 0 -5 -13 -5 -30 0 -17 5 -30 5 -30 0 0 -5 -13 -5 -30 0 -17 5
-30 5 -30 0 0 -5 -13 -5 -30 0 -17 5 -30 5 -30 0 0 -5 -13 -5 -30 0 -18 5 -32
5 -36 -1 -3 -5 -10 -7 -15 -3 -13 8 -107 9 -115 1 -3 -3 -16 -2 -28 3 -13 4
-29 4 -36 0 -8 -5 -18 -6 -23 -3 -13 8 -147 9 -147 2 0 -4 -18 -3 -40 1 -22 4
-43 4 -46 -1 -2 -4 -15 -4 -28 1 -12 4 -29 4 -36 0 -8 -5 -18 -6 -23 -3 -12 7
-147 10 -147 3 0 -3 -22 -5 -50 -5 -27 0 -50 2 -50 5 0 6 -89 3 -106 -4 -6 -2
-17 0 -24 4 -8 5 -21 5 -30 0 -9 -5 -22 -5 -30 0 -8 5 -21 5 -30 0 -9 -5 -22
-5 -30 0 -8 5 -21 5 -30 0 -9 -5 -22 -5 -30 0 -8 5 -21 5 -30 0 -9 -5 -22 -5
-30 0 -8 5 -21 5 -30 0 -9 -5 -22 -5 -30 0 -8 5 -21 5 -30 0 -9 -5 -22 -5 -30
0 -8 5 -21 5 -30 0 -9 -5 -22 -5 -30 0 -8 5 -21 5 -30 0 -9 -5 -22 -5 -30 0
-8 5 -21 5 -30 0 -9 -5 -22 -5 -30 0 -8 5 -21 5 -30 0 -9 -5 -22 -5 -30 0 -8
5 -21 5 -30 0 -9 -5 -22 -5 -30 0 -8 5 -21 5 -30 0 -9 -5 -22 -5 -30 0 -8 5
-21 5 -30 0 -9 -5 -22 -5 -30 0 -8 5 -21 5 -30 0 -9 -5 -22 -5 -30 0 -8 5 -21
5 -30 0 -9 -5 -22 -5 -30 0 -8 5 -21 5 -30 0 -9 -5 -22 -5 -30 0 -7 4 -23 4
-36 0 -12 -5 -25 -6 -28 -3 -3 3 -28 6 -56 6 -28 0 -53 -3 -56 -6 -3 -3 -16
-2 -28 3 -13 4 -29 4 -36 0 -8 -5 -18 -6 -23 -3 -12 7 -147 10 -147 3z"/>
<path d="M3567 2564 c-3 -3 -31 -7 -63 -9 -74 -5 -81 -7 -125 -28 -44 -22
-119 -86 -119 -103 0 -7 -4 -14 -10 -16 -23 -7 -49 -114 -45 -185 8 -164 125
-284 291 -298 38 -4 75 -8 82 -10 6 -3 12 -1 12 4 0 5 18 5 39 1 22 -4 45 -4
52 1 7 4 22 4 34 -1 12 -5 27 -5 34 0 7 4 27 4 45 1 17 -4 40 -6 51 -5 11 1
32 3 48 3 15 1 39 1 55 2 15 0 34 0 42 0 8 -1 26 -1 40 0 14 0 32 0 40 0 8 -1
26 -1 40 0 14 0 32 0 40 0 8 -1 26 -1 40 0 14 0 32 0 40 0 8 -1 26 -1 40 0 14
0 32 0 40 0 8 -1 26 -1 40 0 14 0 32 0 40 0 8 -1 26 -1 40 0 14 0 32 0 40 0 8
-1 26 -1 40 0 14 0 32 0 40 0 8 -1 26 -1 40 0 14 0 32 0 40 0 8 -1 26 -1 40 0
23 1 31 1 63 -2 49 -4 163 14 199 31 51 24 128 88 128 106 0 7 4 14 10 16 13
4 52 116 45 129 -4 5 -1 9 5 9 6 0 9 4 6 8 -3 5 -8 32 -11 62 -17 145 -138
264 -280 274 -30 3 -58 7 -63 10 -4 2 -14 1 -21 -3 -7 -5 -27 -5 -45 -2 -17 4
-46 4 -63 0 -18 -3 -33 -4 -33 0 0 3 -19 5 -42 3 -24 -1 -49 -3 -55 -2 -7 0
-20 0 -28 0 -8 0 -22 0 -30 0 -8 0 -22 0 -30 0 -8 0 -22 0 -30 0 -8 0 -22 0
-30 0 -8 0 -22 0 -30 0 -8 0 -22 0 -30 0 -8 0 -22 0 -30 0 -8 0 -22 0 -30 0
-8 0 -22 0 -30 0 -8 0 -22 0 -30 0 -8 0 -22 0 -30 0 -8 0 -22 0 -30 0 -8 0
-22 0 -30 0 -8 0 -22 0 -30 0 -8 0 -22 0 -30 0 -8 0 -22 0 -30 0 -8 0 -22 0
-30 0 -8 0 -22 0 -30 0 -8 0 -21 0 -27 0 -7 0 -37 0 -66 1 -29 1 -55 0 -58 -4
-3 -3 -18 -2 -33 3 -16 4 -34 4 -41 0 -6 -4 -27 -4 -46 0 -19 4 -36 4 -39 0
-3 -5 -18 -5 -34 0 -16 4 -32 6 -34 4z"/>
<path d="M2940 1287 c-3 -3 -34 -7 -70 -9 -67 -5 -160 -33 -160 -49 0 -5 -6
-9 -13 -9 -19 0 -83 -76 -108 -129 -17 -36 -22 -65 -23 -131 -1 -101 23 -158
91 -226 92 -92 122 -96 578 -92 l370 3 55 29 c161 84 220 261 144 433 -21 47
-92 115 -149 143 -41 19 -67 24 -142 24 -51 1 -93 3 -93 6 0 3 -33 4 -72 2
-40 -1 -111 -2 -158 -2 -162 1 -223 -1 -231 -5 -4 -3 -9 0 -11 6 -2 5 -6 8 -8
6z"/>
</g>
</svg>
